<?xml version='1.0' encoding='UTF-8'?>
<svg width="45mm" height="45mm" version="1.1" viewBox="0 0 45 45" fill_color="#07C160" back_color="white" xmlns="http://www.w3.org/2000/svg"><path d="M2,2H3V3H2zM3,2H4V3H3zM4,2H5V3H4zM5,2H6V3H5zM6,2H7V3H6zM7,2H8V3H7zM8,2H9V3H8zM11,2H12V3H11zM13,2H14V3H13zM14,2H15V3H14zM20,2H21V3H20zM23,2H24V3H23zM25,2H26V3H25zM26,2H27V3H26zM30,2H31V3H30zM32,2H33V3H32zM33,2H34V3H33zM34,2H35V3H34zM36,2H37V3H36zM37,2H38V3H37zM38,2H39V3H38zM39,2H40V3H39zM40,2H41V3H40zM41,2H42V3H41zM42,2H43V3H42zM2,3H3V4H2zM8,3H9V4H8zM15,3H16V4H15zM17,3H18V4H17zM19,3H20V4H19zM21,3H22V4H21zM22,3H23V4H22zM28,3H29V4H28zM30,3H31V4H30zM36,3H37V4H36zM42,3H43V4H42zM2,4H3V5H2zM4,4H5V5H4zM5,4H6V5H5zM6,4H7V5H6zM8,4H9V5H8zM13,4H14V5H13zM14,4H15V5H14zM15,4H16V5H15zM16,4H17V5H16zM18,4H19V5H18zM22,4H23V5H22zM23,4H24V5H23zM25,4H26V5H25zM26,4H27V5H26zM27,4H28V5H27zM28,4H29V5H28zM29,4H30V5H29zM32,4H33V5H32zM34,4H35V5H34zM36,4H37V5H36zM38,4H39V5H38zM39,4H40V5H39zM40,4H41V5H40zM42,4H43V5H42zM2,5H3V6H2zM4,5H5V6H4zM5,5H6V6H5zM6,5H7V6H6zM8,5H9V6H8zM11,5H12V6H11zM15,5H16V6H15zM16,5H17V6H16zM19,5H20V6H19zM20,5H21V6H20zM21,5H22V6H21zM22,5H23V6H22zM24,5H25V6H24zM25,5H26V6H25zM26,5H27V6H26zM31,5H32V6H31zM33,5H34V6H33zM34,5H35V6H34zM36,5H37V6H36zM38,5H39V6H38zM39,5H40V6H39zM40,5H41V6H40zM42,5H43V6H42zM2,6H3V7H2zM4,6H5V7H4zM5,6H6V7H5zM6,6H7V7H6zM8,6H9V7H8zM10,6H11V7H10zM14,6H15V7H14zM15,6H16V7H15zM18,6H19V7H18zM19,6H20V7H19zM20,6H21V7H20zM21,6H22V7H21zM22,6H23V7H22zM23,6H24V7H23zM29,6H30V7H29zM30,6H31V7H30zM31,6H32V7H31zM33,6H34V7H33zM34,6H35V7H34zM36,6H37V7H36zM38,6H39V7H38zM39,6H40V7H39zM40,6H41V7H40zM42,6H43V7H42zM2,7H3V8H2zM8,7H9V8H8zM11,7H12V8H11zM12,7H13V8H12zM15,7H16V8H15zM18,7H19V8H18zM19,7H20V8H19zM20,7H21V8H20zM25,7H26V8H25zM30,7H31V8H30zM33,7H34V8H33zM34,7H35V8H34zM36,7H37V8H36zM42,7H43V8H42zM2,8H3V9H2zM3,8H4V9H3zM4,8H5V9H4zM5,8H6V9H5zM6,8H7V9H6zM7,8H8V9H7zM8,8H9V9H8zM10,8H11V9H10zM12,8H13V9H12zM14,8H15V9H14zM16,8H17V9H16zM18,8H19V9H18zM20,8H21V9H20zM22,8H23V9H22zM24,8H25V9H24zM26,8H27V9H26zM28,8H29V9H28zM30,8H31V9H30zM32,8H33V9H32zM34,8H35V9H34zM36,8H37V9H36zM37,8H38V9H37zM38,8H39V9H38zM39,8H40V9H39zM40,8H41V9H40zM41,8H42V9H41zM42,8H43V9H42zM10,9H11V10H10zM12,9H13V10H12zM15,9H16V10H15zM18,9H19V10H18zM19,9H20V10H19zM20,9H21V10H20zM22,9H23V10H22zM23,9H24V10H23zM24,9H25V10H24zM26,9H27V10H26zM27,9H28V10H27zM28,9H29V10H28zM29,9H30V10H29zM31,9H32V10H31zM32,9H33V10H32zM34,9H35V10H34zM4,10H5V11H4zM5,10H6V11H5zM8,10H9V11H8zM9,10H10V11H9zM10,10H11V11H10zM12,10H13V11H12zM13,10H14V11H13zM14,10H15V11H14zM16,10H17V11H16zM26,10H27V11H26zM27,10H28V11H27zM28,10H29V11H28zM30,10H31V11H30zM31,10H32V11H31zM33,10H34V11H33zM34,10H35V11H34zM35,10H36V11H35zM36,10H37V11H36zM38,10H39V11H38zM4,11H5V12H4zM9,11H10V12H9zM13,11H14V12H13zM14,11H15V12H14zM15,11H16V12H15zM18,11H19V12H18zM19,11H20V12H19zM22,11H23V12H22zM23,11H24V12H23zM25,11H26V12H25zM28,11H29V12H28zM30,11H31V12H30zM32,11H33V12H32zM33,11H34V12H33zM36,11H37V12H36zM37,11H38V12H37zM38,11H39V12H38zM40,11H41V12H40zM42,11H43V12H42zM4,12H5V13H4zM5,12H6V13H5zM6,12H7V13H6zM8,12H9V13H8zM14,12H15V13H14zM15,12H16V13H15zM16,12H17V13H16zM18,12H19V13H18zM20,12H21V13H20zM22,12H23V13H22zM25,12H26V13H25zM26,12H27V13H26zM27,12H28V13H27zM28,12H29V13H28zM31,12H32V13H31zM32,12H33V13H32zM35,12H36V13H35zM37,12H38V13H37zM40,12H41V13H40zM41,12H42V13H41zM2,13H3V14H2zM4,13H5V14H4zM11,13H12V14H11zM13,13H14V14H13zM15,13H16V14H15zM18,13H19V14H18zM21,13H22V14H21zM24,13H25V14H24zM26,13H27V14H26zM27,13H28V14H27zM29,13H30V14H29zM34,13H35V14H34zM36,13H37V14H36zM41,13H42V14H41zM42,13H43V14H42zM6,14H7V15H6zM8,14H9V15H8zM9,14H10V15H9zM11,14H12V15H11zM23,14H24V15H23zM24,14H25V15H24zM26,14H27V15H26zM29,14H30V15H29zM31,14H32V15H31zM32,14H33V15H32zM33,14H34V15H33zM35,14H36V15H35zM39,14H40V15H39zM40,14H41V15H40zM4,15H5V16H4zM5,15H6V16H5zM9,15H10V16H9zM12,15H13V16H12zM13,15H14V16H13zM15,15H16V16H15zM19,15H20V16H19zM20,15H21V16H20zM21,15H22V16H21zM22,15H23V16H22zM26,15H27V16H26zM28,15H29V16H28zM30,15H31V16H30zM33,15H34V16H33zM35,15H36V16H35zM36,15H37V16H36zM39,15H40V16H39zM42,15H43V16H42zM2,16H3V17H2zM3,16H4V17H3zM6,16H7V17H6zM8,16H9V17H8zM9,16H10V17H9zM10,16H11V17H10zM11,16H12V17H11zM12,16H13V17H12zM13,16H14V17H13zM15,16H16V17H15zM18,16H19V17H18zM19,16H20V17H19zM20,16H21V17H20zM23,16H24V17H23zM24,16H25V17H24zM25,16H26V17H25zM27,16H28V17H27zM29,16H30V17H29zM30,16H31V17H30zM31,16H32V17H31zM32,16H33V17H32zM33,16H34V17H33zM34,16H35V17H34zM36,16H37V17H36zM38,16H39V17H38zM41,16H42V17H41zM42,16H43V17H42zM3,17H4V18H3zM4,17H5V18H4zM6,17H7V18H6zM7,17H8V18H7zM10,17H11V18H10zM11,17H12V18H11zM12,17H13V18H12zM16,17H17V18H16zM17,17H18V18H17zM19,17H20V18H19zM20,17H21V18H20zM21,17H22V18H21zM25,17H26V18H25zM26,17H27V18H26zM28,17H29V18H28zM30,17H31V18H30zM32,17H33V18H32zM34,17H35V18H34zM36,17H37V18H36zM37,17H38V18H37zM38,17H39V18H38zM39,17H40V18H39zM7,18H8V19H7zM8,18H9V19H8zM9,18H10V19H9zM10,18H11V19H10zM12,18H13V19H12zM13,18H14V19H13zM14,18H15V19H14zM17,18H18V19H17zM18,18H19V19H18zM20,18H21V19H20zM21,18H22V19H21zM22,18H23V19H22zM25,18H26V19H25zM26,18H27V19H26zM28,18H29V19H28zM29,18H30V19H29zM30,18H31V19H30zM32,18H33V19H32zM34,18H35V19H34zM38,18H39V19H38zM41,18H42V19H41zM2,19H3V20H2zM3,19H4V20H3zM5,19H6V20H5zM6,19H7V20H6zM7,19H8V20H7zM9,19H10V20H9zM12,19H13V20H12zM13,19H14V20H13zM14,19H15V20H14zM17,19H18V20H17zM18,19H19V20H18zM19,19H20V20H19zM22,19H23V20H22zM23,19H24V20H23zM24,19H25V20H24zM25,19H26V20H25zM26,19H27V20H26zM27,19H28V20H27zM28,19H29V20H28zM29,19H30V20H29zM30,19H31V20H30zM31,19H32V20H31zM34,19H35V20H34zM35,19H36V20H35zM37,19H38V20H37zM40,19H41V20H40zM5,20H6V21H5zM6,20H7V21H6zM7,20H8V21H7zM8,20H9V21H8zM10,20H11V21H10zM11,20H12V21H11zM14,20H15V21H14zM17,20H18V21H17zM19,20H20V21H19zM24,20H25V21H24zM26,20H27V21H26zM28,20H29V21H28zM29,20H30V21H29zM30,20H31V21H30zM32,20H33V21H32zM35,20H36V21H35zM38,20H39V21H38zM41,20H42V21H41zM3,21H4V22H3zM4,21H5V22H4zM6,21H7V22H6zM7,21H8V22H7zM9,21H10V22H9zM10,21H11V22H10zM12,21H13V22H12zM13,21H14V22H13zM18,21H19V22H18zM19,21H20V22H19zM23,21H24V22H23zM26,21H27V22H26zM30,21H31V22H30zM31,21H32V22H31zM35,21H36V22H35zM37,21H38V22H37zM40,21H41V22H40zM42,21H43V22H42zM2,22H3V23H2zM5,22H6V23H5zM6,22H7V23H6zM7,22H8V23H7zM8,22H9V23H8zM9,22H10V23H9zM12,22H13V23H12zM14,22H15V23H14zM15,22H16V23H15zM16,22H17V23H16zM17,22H18V23H17zM20,22H21V23H20zM23,22H24V23H23zM25,22H26V23H25zM28,22H29V23H28zM31,22H32V23H31zM32,22H33V23H32zM33,22H34V23H33zM34,22H35V23H34zM35,22H36V23H35zM36,22H37V23H36zM38,22H39V23H38zM39,22H40V23H39zM40,22H41V23H40zM41,22H42V23H41zM3,23H4V24H3zM4,23H5V24H4zM5,23H6V24H5zM6,23H7V24H6zM10,23H11V24H10zM13,23H14V24H13zM15,23H16V24H15zM19,23H20V24H19zM21,23H22V24H21zM24,23H25V24H24zM25,23H26V24H25zM27,23H28V24H27zM30,23H31V24H30zM31,23H32V24H31zM32,23H33V24H32zM33,23H34V24H33zM36,23H37V24H36zM37,23H38V24H37zM38,23H39V24H38zM39,23H40V24H39zM41,23H42V24H41zM42,23H43V24H42zM3,24H4V25H3zM4,24H5V25H4zM5,24H6V25H5zM7,24H8V25H7zM8,24H9V25H8zM9,24H10V25H9zM10,24H11V25H10zM11,24H12V25H11zM14,24H15V25H14zM18,24H19V25H18zM19,24H20V25H19zM20,24H21V25H20zM21,24H22V25H21zM22,24H23V25H22zM24,24H25V25H24zM28,24H29V25H28zM30,24H31V25H30zM31,24H32V25H31zM32,24H33V25H32zM38,24H39V25H38zM40,24H41V25H40zM41,24H42V25H41zM3,25H4V26H3zM6,25H7V26H6zM10,25H11V26H10zM11,25H12V26H11zM15,25H16V26H15zM16,25H17V26H16zM17,25H18V26H17zM20,25H21V26H20zM21,25H22V26H21zM22,25H23V26H22zM25,25H26V26H25zM28,25H29V26H28zM32,25H33V26H32zM33,25H34V26H33zM34,25H35V26H34zM36,25H37V26H36zM37,25H38V26H37zM38,25H39V26H38zM42,25H43V26H42zM2,26H3V27H2zM4,26H5V27H4zM8,26H9V27H8zM9,26H10V27H9zM12,26H13V27H12zM15,26H16V27H15zM16,26H17V27H16zM21,26H22V27H21zM22,26H23V27H22zM23,26H24V27H23zM24,26H25V27H24zM25,26H26V27H25zM26,26H27V27H26zM27,26H28V27H27zM28,26H29V27H28zM29,26H30V27H29zM30,26H31V27H30zM31,26H32V27H31zM33,26H34V27H33zM35,26H36V27H35zM37,26H38V27H37zM40,26H41V27H40zM41,26H42V27H41zM42,26H43V27H42zM3,27H4V28H3zM6,27H7V28H6zM9,27H10V28H9zM10,27H11V28H10zM11,27H12V28H11zM12,27H13V28H12zM14,27H15V28H14zM18,27H19V28H18zM21,27H22V28H21zM26,27H27V28H26zM29,27H30V28H29zM30,27H31V28H30zM32,27H33V28H32zM33,27H34V28H33zM34,27H35V28H34zM36,27H37V28H36zM39,27H40V28H39zM40,27H41V28H40zM42,27H43V28H42zM2,28H3V29H2zM5,28H6V29H5zM7,28H8V29H7zM8,28H9V29H8zM10,28H11V29H10zM12,28H13V29H12zM13,28H14V29H13zM15,28H16V29H15zM17,28H18V29H17zM20,28H21V29H20zM25,28H26V29H25zM27,28H28V29H27zM31,28H32V29H31zM32,28H33V29H32zM33,28H34V29H33zM34,28H35V29H34zM35,28H36V29H35zM37,28H38V29H37zM39,28H40V29H39zM41,28H42V29H41zM42,28H43V29H42zM3,29H4V30H3zM4,29H5V30H4zM7,29H8V30H7zM12,29H13V30H12zM13,29H14V30H13zM17,29H18V30H17zM18,29H19V30H18zM20,29H21V30H20zM24,29H25V30H24zM26,29H27V30H26zM28,29H29V30H28zM29,29H30V30H29zM30,29H31V30H30zM32,29H33V30H32zM33,29H34V30H33zM34,29H35V30H34zM38,29H39V30H38zM39,29H40V30H39zM2,30H3V31H2zM4,30H5V31H4zM6,30H7V31H6zM7,30H8V31H7zM8,30H9V31H8zM10,30H11V31H10zM13,30H14V31H13zM14,30H15V31H14zM18,30H19V31H18zM19,30H20V31H19zM21,30H22V31H21zM32,30H33V31H32zM33,30H34V31H33zM34,30H35V31H34zM35,30H36V31H35zM38,30H39V31H38zM39,30H40V31H39zM41,30H42V31H41zM42,30H43V31H42zM3,31H4V32H3zM4,31H5V32H4zM5,31H6V32H5zM7,31H8V32H7zM9,31H10V32H9zM11,31H12V32H11zM12,31H13V32H12zM14,31H15V32H14zM15,31H16V32H15zM17,31H18V32H17zM19,31H20V32H19zM20,31H21V32H20zM23,31H24V32H23zM24,31H25V32H24zM25,31H26V32H25zM26,31H27V32H26zM27,31H28V32H27zM30,31H31V32H30zM32,31H33V32H32zM34,31H35V32H34zM35,31H36V32H35zM37,31H38V32H37zM40,31H41V32H40zM2,32H3V33H2zM4,32H5V33H4zM5,32H6V33H5zM7,32H8V33H7zM8,32H9V33H8zM10,32H11V33H10zM11,32H12V33H11zM12,32H13V33H12zM20,32H21V33H20zM23,32H24V33H23zM25,32H26V33H25zM29,32H30V33H29zM32,32H33V33H32zM34,32H35V33H34zM35,32H36V33H35zM36,32H37V33H36zM37,32H38V33H37zM5,33H6V34H5zM6,33H7V34H6zM9,33H10V34H9zM12,33H13V34H12zM16,33H17V34H16zM17,33H18V34H17zM18,33H19V34H18zM19,33H20V34H19zM22,33H23V34H22zM24,33H25V34H24zM25,33H26V34H25zM26,33H27V34H26zM27,33H28V34H27zM28,33H29V34H28zM30,33H31V34H30zM31,33H32V34H31zM32,33H33V34H32zM33,33H34V34H33zM36,33H37V34H36zM38,33H39V34H38zM39,33H40V34H39zM40,33H41V34H40zM41,33H42V34H41zM42,33H43V34H42zM3,34H4V35H3zM6,34H7V35H6zM7,34H8V35H7zM8,34H9V35H8zM9,34H10V35H9zM10,34H11V35H10zM11,34H12V35H11zM12,34H13V35H12zM13,34H14V35H13zM14,34H15V35H14zM16,34H17V35H16zM18,34H19V35H18zM20,34H21V35H20zM21,34H22V35H21zM23,34H24V35H23zM25,34H26V35H25zM30,34H31V35H30zM31,34H32V35H31zM32,34H33V35H32zM33,34H34V35H33zM34,34H35V35H34zM35,34H36V35H35zM36,34H37V35H36zM37,34H38V35H37zM38,34H39V35H38zM39,34H40V35H39zM40,34H41V35H40zM42,34H43V35H42zM10,35H11V36H10zM11,35H12V36H11zM13,35H14V36H13zM14,35H15V36H14zM17,35H18V36H17zM18,35H19V36H18zM23,35H24V36H23zM24,35H25V36H24zM27,35H28V36H27zM30,35H31V36H30zM34,35H35V36H34zM38,35H39V36H38zM39,35H40V36H39zM40,35H41V36H40zM41,35H42V36H41zM42,35H43V36H42zM2,36H3V37H2zM3,36H4V37H3zM4,36H5V37H4zM5,36H6V37H5zM6,36H7V37H6zM7,36H8V37H7zM8,36H9V37H8zM10,36H11V37H10zM12,36H13V37H12zM14,36H15V37H14zM15,36H16V37H15zM16,36H17V37H16zM18,36H19V37H18zM19,36H20V37H19zM20,36H21V37H20zM22,36H23V37H22zM26,36H27V37H26zM31,36H32V37H31zM33,36H34V37H33zM34,36H35V37H34zM36,36H37V37H36zM38,36H39V37H38zM41,36H42V37H41zM2,37H3V38H2zM8,37H9V38H8zM12,37H13V38H12zM13,37H14V38H13zM14,37H15V38H14zM18,37H19V38H18zM19,37H20V38H19zM20,37H21V38H20zM21,37H22V38H21zM22,37H23V38H22zM24,37H25V38H24zM25,37H26V38H25zM27,37H28V38H27zM32,37H33V38H32zM34,37H35V38H34zM38,37H39V38H38zM41,37H42V38H41zM42,37H43V38H42zM2,38H3V39H2zM4,38H5V39H4zM5,38H6V39H5zM6,38H7V39H6zM8,38H9V39H8zM11,38H12V39H11zM16,38H17V39H16zM17,38H18V39H17zM20,38H21V39H20zM21,38H22V39H21zM24,38H25V39H24zM28,38H29V39H28zM29,38H30V39H29zM31,38H32V39H31zM34,38H35V39H34zM35,38H36V39H35zM36,38H37V39H36zM37,38H38V39H37zM38,38H39V39H38zM40,38H41V39H40zM2,39H3V40H2zM4,39H5V40H4zM5,39H6V40H5zM6,39H7V40H6zM8,39H9V40H8zM10,39H11V40H10zM11,39H12V40H11zM14,39H15V40H14zM15,39H16V40H15zM17,39H18V40H17zM18,39H19V40H18zM20,39H21V40H20zM21,39H22V40H21zM22,39H23V40H22zM23,39H24V40H23zM25,39H26V40H25zM26,39H27V40H26zM27,39H28V40H27zM28,39H29V40H28zM29,39H30V40H29zM30,39H31V40H30zM31,39H32V40H31zM32,39H33V40H32zM33,39H34V40H33zM38,39H39V40H38zM41,39H42V40H41zM42,39H43V40H42zM2,40H3V41H2zM4,40H5V41H4zM5,40H6V41H5zM6,40H7V41H6zM8,40H9V41H8zM10,40H11V41H10zM11,40H12V41H11zM13,40H14V41H13zM14,40H15V41H14zM15,40H16V41H15zM17,40H18V41H17zM19,40H20V41H19zM21,40H22V41H21zM22,40H23V41H22zM26,40H27V41H26zM27,40H28V41H27zM28,40H29V41H28zM30,40H31V41H30zM31,40H32V41H31zM34,40H35V41H34zM37,40H38V41H37zM39,40H40V41H39zM42,40H43V41H42zM2,41H3V42H2zM8,41H9V42H8zM11,41H12V42H11zM13,41H14V42H13zM14,41H15V42H14zM15,41H16V42H15zM16,41H17V42H16zM17,41H18V42H17zM18,41H19V42H18zM19,41H20V42H19zM20,41H21V42H20zM25,41H26V42H25zM28,41H29V42H28zM30,41H31V42H30zM34,41H35V42H34zM38,41H39V42H38zM39,41H40V42H39zM41,41H42V42H41zM2,42H3V43H2zM3,42H4V43H3zM4,42H5V43H4zM5,42H6V43H5zM6,42H7V43H6zM7,42H8V43H7zM8,42H9V43H8zM12,42H13V43H12zM13,42H14V43H13zM14,42H15V43H14zM16,42H17V43H16zM17,42H18V43H17zM18,42H19V43H18zM19,42H20V43H19zM20,42H21V43H20zM21,42H22V43H21zM27,42H28V43H27zM28,42H29V43H28zM32,42H33V43H32zM34,42H35V43H34zM41,42H42V43H41z" id="qr-path" fill="#000000" fill-opacity="1" fill-rule="nonzero" stroke="none"/></svg>